G04 #@! TF.GenerationSoftware,KiCad,Pcbnew,9.0.8-9.0.8~ubuntu24.04.1*
G04 #@! TF.CreationDate,2026-04-07T16:41:21+10:00*
G04 #@! TF.ProjectId,LED_Board,4c45445f-426f-4617-9264-2e6b69636164,rev?*
G04 #@! TF.SameCoordinates,Original*
G04 #@! TF.FileFunction,Soldermask,Top*
G04 #@! TF.FilePolarity,Negative*
%FSLAX46Y46*%
G04 Gerber Fmt 4.6, Leading zero omitted, Abs format (unit mm)*
G04 Created by KiCad (PCBNEW 9.0.8-9.0.8~ubuntu24.04.1) date 2026-04-07 16:41:21*
%MOMM*%
%LPD*%
G01*
G04 APERTURE LIST*
G04 Aperture macros list*
%AMRoundRect*
0 Rectangle with rounded corners*
0 $1 Rounding radius*
0 $2 $3 $4 $5 $6 $7 $8 $9 X,Y pos of 4 corners*
0 Add a 4 corners polygon primitive as box body*
4,1,4,$2,$3,$4,$5,$6,$7,$8,$9,$2,$3,0*
0 Add four circle primitives for the rounded corners*
1,1,$1+$1,$2,$3*
1,1,$1+$1,$4,$5*
1,1,$1+$1,$6,$7*
1,1,$1+$1,$8,$9*
0 Add four rect primitives between the rounded corners*
20,1,$1+$1,$2,$3,$4,$5,0*
20,1,$1+$1,$4,$5,$6,$7,0*
20,1,$1+$1,$6,$7,$8,$9,0*
20,1,$1+$1,$8,$9,$2,$3,0*%
G04 Aperture macros list end*
%ADD10RoundRect,0.075000X0.390000X0.275000X-0.390000X0.275000X-0.390000X-0.275000X0.390000X-0.275000X0*%
%ADD11RoundRect,0.075000X0.075000X0.275000X-0.075000X0.275000X-0.075000X-0.275000X0.075000X-0.275000X0*%
%ADD12RoundRect,0.102000X0.550000X0.900000X-0.550000X0.900000X-0.550000X-0.900000X0.550000X-0.900000X0*%
%ADD13RoundRect,0.102000X1.100000X0.900000X-1.100000X0.900000X-1.100000X-0.900000X1.100000X-0.900000X0*%
%ADD14R,2.000000X2.000000*%
%ADD15RoundRect,0.102000X-0.550000X-0.900000X0.550000X-0.900000X0.550000X0.900000X-0.550000X0.900000X0*%
%ADD16RoundRect,0.102000X-1.100000X-0.900000X1.100000X-0.900000X1.100000X0.900000X-1.100000X0.900000X0*%
%ADD17RoundRect,0.250000X0.650000X-0.350000X0.650000X0.350000X-0.650000X0.350000X-0.650000X-0.350000X0*%
%ADD18O,1.800000X1.200000*%
%ADD19RoundRect,0.150000X-0.587500X-0.150000X0.587500X-0.150000X0.587500X0.150000X-0.587500X0.150000X0*%
%ADD20R,0.500000X2.140000*%
%ADD21R,1.000000X2.140000*%
%ADD22R,2.780000X4.780000*%
%ADD23RoundRect,0.250000X0.450000X-0.262500X0.450000X0.262500X-0.450000X0.262500X-0.450000X-0.262500X0*%
%ADD24RoundRect,0.250000X0.262500X0.450000X-0.262500X0.450000X-0.262500X-0.450000X0.262500X-0.450000X0*%
%ADD25RoundRect,0.250000X-0.262500X-0.450000X0.262500X-0.450000X0.262500X0.450000X-0.262500X0.450000X0*%
%ADD26C,2.200000*%
%ADD27RoundRect,0.250000X-0.475000X0.250000X-0.475000X-0.250000X0.475000X-0.250000X0.475000X0.250000X0*%
%ADD28RoundRect,0.075000X-0.275000X0.390000X-0.275000X-0.390000X0.275000X-0.390000X0.275000X0.390000X0*%
%ADD29RoundRect,0.075000X-0.275000X0.075000X-0.275000X-0.075000X0.275000X-0.075000X0.275000X0.075000X0*%
G04 APERTURE END LIST*
D10*
G04 #@! TO.C,D10*
X151885000Y-113600000D03*
D11*
X151000000Y-113600000D03*
G04 #@! TD*
D12*
G04 #@! TO.C,D9*
X183115000Y-84800000D03*
D13*
X185355000Y-84800000D03*
G04 #@! TD*
D14*
G04 #@! TO.C,TP3*
X139900000Y-91800000D03*
G04 #@! TD*
D15*
G04 #@! TO.C,D8*
X186485000Y-119000000D03*
D16*
X184245000Y-119000000D03*
G04 #@! TD*
D17*
G04 #@! TO.C,J2*
X142750000Y-102300000D03*
D18*
X142750000Y-100300000D03*
G04 #@! TD*
D19*
G04 #@! TO.C,Q4*
X149625000Y-108050000D03*
X149625000Y-109950000D03*
X151500000Y-109000000D03*
G04 #@! TD*
D15*
G04 #@! TO.C,D2*
X175751667Y-119000000D03*
D16*
X173511667Y-119000000D03*
G04 #@! TD*
D20*
G04 #@! TO.C,D1*
X171040000Y-100080050D03*
X166760000Y-102720050D03*
D21*
X170790000Y-102720050D03*
D22*
X168900000Y-101400050D03*
D21*
X167010000Y-100080050D03*
G04 #@! TD*
D14*
G04 #@! TO.C,TP4*
X139900000Y-114500000D03*
G04 #@! TD*
G04 #@! TO.C,TP2*
X139900000Y-108400000D03*
G04 #@! TD*
D12*
G04 #@! TO.C,D4*
X150915000Y-84800000D03*
D13*
X153155000Y-84800000D03*
G04 #@! TD*
D14*
G04 #@! TO.C,TP1*
X139900000Y-85533333D03*
G04 #@! TD*
D23*
G04 #@! TO.C,R39*
X146193750Y-109950000D03*
X146193750Y-108125000D03*
G04 #@! TD*
D12*
G04 #@! TO.C,D5*
X161648333Y-84800000D03*
D13*
X163888333Y-84800000D03*
G04 #@! TD*
D24*
G04 #@! TO.C,R40*
X150825000Y-91100000D03*
X149000000Y-91100000D03*
G04 #@! TD*
D25*
G04 #@! TO.C,R38*
X142556250Y-108300000D03*
X144381250Y-108300000D03*
G04 #@! TD*
D26*
G04 #@! TO.C,REF\u002A\u002A4*
X151850000Y-130931500D03*
G04 #@! TD*
D27*
G04 #@! TO.C,C1*
X145030000Y-91150000D03*
X145030000Y-93050000D03*
G04 #@! TD*
D26*
G04 #@! TO.C,REF\u002A\u002A*
X203000000Y-101400000D03*
G04 #@! TD*
D28*
G04 #@! TO.C,D11*
X147900000Y-108115000D03*
D29*
X147900000Y-109000000D03*
G04 #@! TD*
D15*
G04 #@! TO.C,D3*
X165018333Y-119000000D03*
D16*
X162778333Y-119000000D03*
G04 #@! TD*
D12*
G04 #@! TO.C,D6*
X172381667Y-84800000D03*
D13*
X174621667Y-84800000D03*
G04 #@! TD*
D24*
G04 #@! TO.C,R37*
X150825000Y-93000000D03*
X149000000Y-93000000D03*
G04 #@! TD*
D27*
G04 #@! TO.C,C2*
X147010537Y-91153286D03*
X147010537Y-93053286D03*
G04 #@! TD*
D26*
G04 #@! TO.C,REF\u002A\u002A3*
X151850000Y-71868600D03*
G04 #@! TD*
D15*
G04 #@! TO.C,D7*
X154285000Y-119000000D03*
D16*
X152045000Y-119000000D03*
G04 #@! TD*
M02*
