G04 #@! TF.GenerationSoftware,KiCad,Pcbnew,9.0.8-9.0.8~ubuntu24.04.1*
G04 #@! TF.CreationDate,2026-04-07T16:41:21+10:00*
G04 #@! TF.ProjectId,LED_Board,4c45445f-426f-4617-9264-2e6b69636164,rev?*
G04 #@! TF.SameCoordinates,Original*
G04 #@! TF.FileFunction,Copper,L1,Top*
G04 #@! TF.FilePolarity,Positive*
%FSLAX46Y46*%
G04 Gerber Fmt 4.6, Leading zero omitted, Abs format (unit mm)*
G04 Created by KiCad (PCBNEW 9.0.8-9.0.8~ubuntu24.04.1) date 2026-04-07 16:41:21*
%MOMM*%
%LPD*%
G01*
G04 APERTURE LIST*
G04 Aperture macros list*
%AMRoundRect*
0 Rectangle with rounded corners*
0 $1 Rounding radius*
0 $2 $3 $4 $5 $6 $7 $8 $9 X,Y pos of 4 corners*
0 Add a 4 corners polygon primitive as box body*
4,1,4,$2,$3,$4,$5,$6,$7,$8,$9,$2,$3,0*
0 Add four circle primitives for the rounded corners*
1,1,$1+$1,$2,$3*
1,1,$1+$1,$4,$5*
1,1,$1+$1,$6,$7*
1,1,$1+$1,$8,$9*
0 Add four rect primitives between the rounded corners*
20,1,$1+$1,$2,$3,$4,$5,0*
20,1,$1+$1,$4,$5,$6,$7,0*
20,1,$1+$1,$6,$7,$8,$9,0*
20,1,$1+$1,$8,$9,$2,$3,0*%
G04 Aperture macros list end*
G04 #@! TA.AperFunction,SMDPad,CuDef*
%ADD10RoundRect,0.075000X0.390000X0.275000X-0.390000X0.275000X-0.390000X-0.275000X0.390000X-0.275000X0*%
G04 #@! TD*
G04 #@! TA.AperFunction,SMDPad,CuDef*
%ADD11RoundRect,0.075000X0.075000X0.275000X-0.075000X0.275000X-0.075000X-0.275000X0.075000X-0.275000X0*%
G04 #@! TD*
G04 #@! TA.AperFunction,SMDPad,CuDef*
%ADD12R,1.100000X1.800000*%
G04 #@! TD*
G04 #@! TA.AperFunction,SMDPad,CuDef*
%ADD13R,2.200000X1.800000*%
G04 #@! TD*
G04 #@! TA.AperFunction,SMDPad,CuDef*
%ADD14R,2.000000X2.000000*%
G04 #@! TD*
G04 #@! TA.AperFunction,ComponentPad*
%ADD15RoundRect,0.250000X0.650000X-0.350000X0.650000X0.350000X-0.650000X0.350000X-0.650000X-0.350000X0*%
G04 #@! TD*
G04 #@! TA.AperFunction,ComponentPad*
%ADD16O,1.800000X1.200000*%
G04 #@! TD*
G04 #@! TA.AperFunction,SMDPad,CuDef*
%ADD17RoundRect,0.150000X-0.587500X-0.150000X0.587500X-0.150000X0.587500X0.150000X-0.587500X0.150000X0*%
G04 #@! TD*
G04 #@! TA.AperFunction,SMDPad,CuDef*
%ADD18R,0.500000X2.140000*%
G04 #@! TD*
G04 #@! TA.AperFunction,SMDPad,CuDef*
%ADD19R,1.000000X2.140000*%
G04 #@! TD*
G04 #@! TA.AperFunction,SMDPad,CuDef*
%ADD20R,2.780000X4.780000*%
G04 #@! TD*
G04 #@! TA.AperFunction,SMDPad,CuDef*
%ADD21RoundRect,0.250000X0.450000X-0.262500X0.450000X0.262500X-0.450000X0.262500X-0.450000X-0.262500X0*%
G04 #@! TD*
G04 #@! TA.AperFunction,SMDPad,CuDef*
%ADD22RoundRect,0.250000X0.262500X0.450000X-0.262500X0.450000X-0.262500X-0.450000X0.262500X-0.450000X0*%
G04 #@! TD*
G04 #@! TA.AperFunction,SMDPad,CuDef*
%ADD23RoundRect,0.250000X-0.262500X-0.450000X0.262500X-0.450000X0.262500X0.450000X-0.262500X0.450000X0*%
G04 #@! TD*
G04 #@! TA.AperFunction,SMDPad,CuDef*
%ADD24RoundRect,0.250000X-0.475000X0.250000X-0.475000X-0.250000X0.475000X-0.250000X0.475000X0.250000X0*%
G04 #@! TD*
G04 #@! TA.AperFunction,SMDPad,CuDef*
%ADD25RoundRect,0.075000X-0.275000X0.390000X-0.275000X-0.390000X0.275000X-0.390000X0.275000X0.390000X0*%
G04 #@! TD*
G04 #@! TA.AperFunction,SMDPad,CuDef*
%ADD26RoundRect,0.075000X-0.275000X0.075000X-0.275000X-0.075000X0.275000X-0.075000X0.275000X0.075000X0*%
G04 #@! TD*
G04 #@! TA.AperFunction,Conductor*
%ADD27C,0.500000*%
G04 #@! TD*
G04 #@! TA.AperFunction,Conductor*
%ADD28C,1.500000*%
G04 #@! TD*
G04 #@! TA.AperFunction,Conductor*
%ADD29C,2.000000*%
G04 #@! TD*
G04 #@! TA.AperFunction,Conductor*
%ADD30C,0.400000*%
G04 #@! TD*
G04 #@! TA.AperFunction,Conductor*
%ADD31C,0.200000*%
G04 #@! TD*
G04 APERTURE END LIST*
D10*
G04 #@! TO.P,D10,1,K*
G04 #@! TO.N,Net-(D10-K)*
X151885000Y-113600000D03*
D11*
G04 #@! TO.P,D10,2,A*
G04 #@! TO.N,GND*
X151000000Y-113600000D03*
G04 #@! TD*
D12*
G04 #@! TO.P,D9,A*
G04 #@! TO.N,Net-(D6-PadC)*
X183115000Y-84800000D03*
D13*
G04 #@! TO.P,D9,C*
G04 #@! TO.N,Net-(D10-K)*
X185355000Y-84800000D03*
G04 #@! TD*
D14*
G04 #@! TO.P,TP3,1,1*
G04 #@! TO.N,Net-(D1-A)*
X139900000Y-91800000D03*
G04 #@! TD*
D12*
G04 #@! TO.P,D8,A*
G04 #@! TO.N,Net-(D8-PadA)*
X186485000Y-119000000D03*
D13*
G04 #@! TO.P,D8,C*
G04 #@! TO.N,Net-(D2-PadA)*
X184245000Y-119000000D03*
G04 #@! TD*
D15*
G04 #@! TO.P,J2,1,Pin_1*
G04 #@! TO.N,GND*
X142750000Y-102300000D03*
D16*
G04 #@! TO.P,J2,2,Pin_2*
G04 #@! TO.N,Net-(D1-A)*
X142750000Y-100300000D03*
G04 #@! TD*
D17*
G04 #@! TO.P,Q4,1,G*
G04 #@! TO.N,Net-(D11-K)*
X149625000Y-108050000D03*
G04 #@! TO.P,Q4,2,S*
G04 #@! TO.N,GND*
X149625000Y-109950000D03*
G04 #@! TO.P,Q4,3,D*
G04 #@! TO.N,Net-(D10-K)*
X151500000Y-109000000D03*
G04 #@! TD*
D12*
G04 #@! TO.P,D2,A*
G04 #@! TO.N,Net-(D2-PadA)*
X175751667Y-119000000D03*
D13*
G04 #@! TO.P,D2,C*
G04 #@! TO.N,Net-(D2-PadC)*
X173511667Y-119000000D03*
G04 #@! TD*
D18*
G04 #@! TO.P,D1,1,K*
G04 #@! TO.N,GND*
X171040000Y-100080050D03*
G04 #@! TO.P,D1,2,A*
G04 #@! TO.N,Net-(D1-A)*
X166760000Y-102720050D03*
D19*
G04 #@! TO.P,D1,3,PAD*
G04 #@! TO.N,GND*
X170790000Y-102720050D03*
D20*
X168900000Y-101400050D03*
D19*
X167010000Y-100080050D03*
G04 #@! TD*
D14*
G04 #@! TO.P,TP4,1,1*
G04 #@! TO.N,GND*
X139900000Y-114500000D03*
G04 #@! TD*
G04 #@! TO.P,TP2,1,1*
G04 #@! TO.N,/GPIO_IN*
X139900000Y-108400000D03*
G04 #@! TD*
D12*
G04 #@! TO.P,D4,A*
G04 #@! TO.N,Net-(D4-PadA)*
X150915000Y-84800000D03*
D13*
G04 #@! TO.P,D4,C*
G04 #@! TO.N,Net-(D4-PadC)*
X153155000Y-84800000D03*
G04 #@! TD*
D14*
G04 #@! TO.P,TP1,1,1*
G04 #@! TO.N,+15V*
X139900000Y-85533333D03*
G04 #@! TD*
D21*
G04 #@! TO.P,R39,1*
G04 #@! TO.N,GND*
X146193750Y-109950000D03*
G04 #@! TO.P,R39,2*
G04 #@! TO.N,Net-(D11-K)*
X146193750Y-108125000D03*
G04 #@! TD*
D12*
G04 #@! TO.P,D5,A*
G04 #@! TO.N,Net-(D4-PadC)*
X161648333Y-84800000D03*
D13*
G04 #@! TO.P,D5,C*
G04 #@! TO.N,Net-(D5-PadC)*
X163888333Y-84800000D03*
G04 #@! TD*
D22*
G04 #@! TO.P,R40,1*
G04 #@! TO.N,Net-(D4-PadA)*
X150825000Y-91100000D03*
G04 #@! TO.P,R40,2*
G04 #@! TO.N,+15V*
X149000000Y-91100000D03*
G04 #@! TD*
D23*
G04 #@! TO.P,R38,1*
G04 #@! TO.N,/GPIO_IN*
X142556250Y-108300000D03*
G04 #@! TO.P,R38,2*
G04 #@! TO.N,Net-(D11-K)*
X144381250Y-108300000D03*
G04 #@! TD*
D24*
G04 #@! TO.P,C1,1*
G04 #@! TO.N,+15V*
X145030000Y-91150000D03*
G04 #@! TO.P,C1,2*
G04 #@! TO.N,GND*
X145030000Y-93050000D03*
G04 #@! TD*
D25*
G04 #@! TO.P,D11,1,K*
G04 #@! TO.N,Net-(D11-K)*
X147900000Y-108115000D03*
D26*
G04 #@! TO.P,D11,2,A*
G04 #@! TO.N,GND*
X147900000Y-109000000D03*
G04 #@! TD*
D12*
G04 #@! TO.P,D3,A*
G04 #@! TO.N,Net-(D2-PadC)*
X165018333Y-119000000D03*
D13*
G04 #@! TO.P,D3,C*
G04 #@! TO.N,Net-(D3-PadC)*
X162778333Y-119000000D03*
G04 #@! TD*
D12*
G04 #@! TO.P,D6,A*
G04 #@! TO.N,Net-(D5-PadC)*
X172381667Y-84800000D03*
D13*
G04 #@! TO.P,D6,C*
G04 #@! TO.N,Net-(D6-PadC)*
X174621667Y-84800000D03*
G04 #@! TD*
D22*
G04 #@! TO.P,R37,1*
G04 #@! TO.N,Net-(D8-PadA)*
X150825000Y-93000000D03*
G04 #@! TO.P,R37,2*
G04 #@! TO.N,+15V*
X149000000Y-93000000D03*
G04 #@! TD*
D24*
G04 #@! TO.P,C2,1*
G04 #@! TO.N,+15V*
X147010537Y-91153286D03*
G04 #@! TO.P,C2,2*
G04 #@! TO.N,GND*
X147010537Y-93053286D03*
G04 #@! TD*
D12*
G04 #@! TO.P,D7,A*
G04 #@! TO.N,Net-(D3-PadC)*
X154285000Y-119000000D03*
D13*
G04 #@! TO.P,D7,C*
G04 #@! TO.N,Net-(D10-K)*
X152045000Y-119000000D03*
G04 #@! TD*
D27*
G04 #@! TO.N,+15V*
X147007251Y-91150000D02*
X147010537Y-91153286D01*
X147010537Y-91153286D02*
X148946714Y-91153286D01*
X139900000Y-85533333D02*
X139900000Y-86020000D01*
X148946714Y-91153286D02*
X149000000Y-91100000D01*
X149000000Y-91100000D02*
X149000000Y-93000000D01*
X145030000Y-91150000D02*
X147007251Y-91150000D01*
X139900000Y-86020000D02*
X145030000Y-91150000D01*
D28*
G04 #@! TO.N,Net-(D1-A)*
X139862963Y-97462963D02*
X139862963Y-91800000D01*
D29*
X164920050Y-102720050D02*
X166310000Y-102720050D01*
X162500000Y-100300000D02*
X164920050Y-102720050D01*
D28*
X142700000Y-100300000D02*
X139862963Y-97462963D01*
X142750000Y-100300000D02*
X142700000Y-100300000D01*
D29*
X142750000Y-100300000D02*
X162500000Y-100300000D01*
D30*
G04 #@! TO.N,Net-(D3-PadC)*
X162778333Y-119000000D02*
X154285000Y-119000000D01*
G04 #@! TO.N,Net-(D2-PadA)*
X184245000Y-119000000D02*
X175751667Y-119000000D01*
G04 #@! TO.N,Net-(D2-PadC)*
X173511667Y-119000000D02*
X165018333Y-119000000D01*
G04 #@! TO.N,Net-(D6-PadC)*
X174621667Y-84800000D02*
X183115000Y-84800000D01*
G04 #@! TO.N,Net-(D4-PadC)*
X153155000Y-84800000D02*
X161648333Y-84800000D01*
D31*
G04 #@! TO.N,Net-(D4-PadA)*
X150825000Y-85290000D02*
X150915000Y-85200000D01*
D30*
X150825000Y-91100000D02*
X150825000Y-85290000D01*
G04 #@! TO.N,Net-(D5-PadC)*
X163888333Y-84800000D02*
X172381667Y-84800000D01*
G04 #@! TO.N,Net-(D8-PadA)*
X152700000Y-90863666D02*
X152700000Y-88300000D01*
X153400000Y-87600000D02*
X187600000Y-87600000D01*
X150825000Y-93000000D02*
X150825000Y-92738666D01*
X189200000Y-89200000D02*
X189200000Y-117700000D01*
X187900000Y-119000000D02*
X186485000Y-119000000D01*
X187600000Y-87600000D02*
X189200000Y-89200000D01*
X152700000Y-88300000D02*
X153400000Y-87600000D01*
X150825000Y-92738666D02*
X152700000Y-90863666D01*
X189200000Y-117700000D02*
X187900000Y-119000000D01*
D31*
G04 #@! TO.N,/GPIO_IN*
X142506250Y-108350000D02*
X142556250Y-108300000D01*
D30*
X139393750Y-108350000D02*
X142506250Y-108350000D01*
G04 #@! TO.N,Net-(D10-K)*
X152090000Y-121400000D02*
X152045000Y-121355000D01*
X190400000Y-120600000D02*
X189600000Y-121400000D01*
X152045000Y-121355000D02*
X152045000Y-109345000D01*
X190400000Y-86400000D02*
X190400000Y-120600000D01*
X185355000Y-84800000D02*
X188800000Y-84800000D01*
X189600000Y-121400000D02*
X152090000Y-121400000D01*
X188800000Y-84800000D02*
X190400000Y-86400000D01*
X152045000Y-109345000D02*
X151600000Y-108900000D01*
D31*
G04 #@! TO.N,Net-(D11-K)*
X147900000Y-108115000D02*
X149560000Y-108115000D01*
X146193750Y-108125000D02*
X147890000Y-108125000D01*
X144381250Y-108300000D02*
X146018750Y-108300000D01*
X147890000Y-108125000D02*
X147900000Y-108115000D01*
X146018750Y-108300000D02*
X146193750Y-108125000D01*
X149560000Y-108115000D02*
X149725000Y-107950000D01*
G04 #@! TD*
G04 #@! TA.AperFunction,Conductor*
G04 #@! TO.N,GND*
G36*
X169706562Y-64380697D02*
G01*
X169710511Y-64380783D01*
X170913140Y-64426675D01*
X170917087Y-64426890D01*
X172080130Y-64509315D01*
X172117544Y-64511967D01*
X172121574Y-64512319D01*
X173318542Y-64636482D01*
X173322518Y-64636959D01*
X174514891Y-64800093D01*
X174518854Y-64800702D01*
X175705223Y-65002618D01*
X175709129Y-65003348D01*
X176888323Y-65243844D01*
X176892269Y-65244716D01*
X178062919Y-65523512D01*
X178066807Y-65524505D01*
X179227824Y-65841343D01*
X179231643Y-65842452D01*
X180381724Y-66196979D01*
X180385486Y-66198206D01*
X181127805Y-66453821D01*
X181523363Y-66590030D01*
X181527165Y-66591409D01*
X182261903Y-66871528D01*
X182651627Y-67020110D01*
X182655375Y-67021609D01*
X183765281Y-67486752D01*
X183768919Y-67488347D01*
X184863128Y-67989456D01*
X184866736Y-67991181D01*
X185943929Y-68527652D01*
X185947516Y-68529511D01*
X187006689Y-69100842D01*
X187010175Y-69102796D01*
X188050183Y-69708370D01*
X188053636Y-69710458D01*
X188721890Y-70129323D01*
X189073271Y-70349570D01*
X189076652Y-70351766D01*
X190022952Y-70988808D01*
X190074938Y-71023804D01*
X190078242Y-71026107D01*
X191054091Y-71730338D01*
X191057322Y-71732750D01*
X191806845Y-72311733D01*
X192009706Y-72468436D01*
X192012858Y-72470954D01*
X192385353Y-72778598D01*
X192940720Y-73237276D01*
X192943795Y-73239901D01*
X193846182Y-74036069D01*
X193849170Y-74038793D01*
X194220490Y-74388586D01*
X194255790Y-74448883D01*
X194252887Y-74518692D01*
X194222176Y-74567484D01*
X190099999Y-78600049D01*
X198699998Y-91600049D01*
X198699999Y-91600049D01*
X198700000Y-91600050D01*
X198700000Y-91600049D01*
X198700001Y-91600050D01*
X200300240Y-90872668D01*
X203749292Y-89304916D01*
X203818465Y-89295096D01*
X203881970Y-89324233D01*
X203918066Y-89378079D01*
X204165680Y-90110295D01*
X204166913Y-90114146D01*
X204515054Y-91266117D01*
X204516160Y-91270006D01*
X204826550Y-92432683D01*
X204827529Y-92436606D01*
X205099846Y-93608784D01*
X205100697Y-93612737D01*
X205334657Y-94793199D01*
X205335378Y-94797178D01*
X205530718Y-95984595D01*
X205531310Y-95988594D01*
X205687842Y-97181818D01*
X205688302Y-97185836D01*
X205805841Y-98383478D01*
X205806170Y-98387508D01*
X205884598Y-99588338D01*
X205884796Y-99592376D01*
X205924033Y-100795151D01*
X205924099Y-100799194D01*
X205924099Y-102002605D01*
X205924033Y-102006648D01*
X205884796Y-103209423D01*
X205884598Y-103213461D01*
X205806170Y-104414291D01*
X205805841Y-104418321D01*
X205688302Y-105615963D01*
X205687842Y-105619981D01*
X205531310Y-106813205D01*
X205530718Y-106817204D01*
X205335378Y-108004621D01*
X205334657Y-108008600D01*
X205100697Y-109189062D01*
X205099846Y-109193015D01*
X204827529Y-110365193D01*
X204826550Y-110369116D01*
X204516160Y-111531793D01*
X204515054Y-111535682D01*
X204166913Y-112687653D01*
X204165680Y-112691504D01*
X203780180Y-113831464D01*
X203778823Y-113835273D01*
X203356343Y-114962108D01*
X203354862Y-114965870D01*
X202895876Y-116078308D01*
X202894273Y-116082020D01*
X202399265Y-117178896D01*
X202397542Y-117182554D01*
X201867025Y-118262728D01*
X201865183Y-118266328D01*
X201299741Y-119328607D01*
X201297783Y-119332145D01*
X200698004Y-120375431D01*
X200695932Y-120378903D01*
X200062461Y-121402074D01*
X200060277Y-121405477D01*
X199393765Y-122407477D01*
X199391471Y-122410806D01*
X198692668Y-123390509D01*
X198690267Y-123393762D01*
X197959876Y-124350182D01*
X197957369Y-124353356D01*
X197196187Y-125285449D01*
X197193579Y-125288538D01*
X196402428Y-126195302D01*
X196399721Y-126198305D01*
X195579388Y-127078832D01*
X195576583Y-127081745D01*
X194728025Y-127935010D01*
X194725128Y-127937830D01*
X193849187Y-128762990D01*
X193846199Y-128765715D01*
X192943795Y-129561898D01*
X192940720Y-129564523D01*
X192012865Y-130330839D01*
X192009706Y-130333363D01*
X191057331Y-131069042D01*
X191054091Y-131071461D01*
X190078255Y-131775683D01*
X190074938Y-131777995D01*
X189076662Y-132450026D01*
X189073271Y-132452229D01*
X188053643Y-133091337D01*
X188050183Y-133093429D01*
X187010195Y-133698992D01*
X187006668Y-133700969D01*
X185947519Y-134272286D01*
X185943929Y-134274147D01*
X184866756Y-134810608D01*
X184863108Y-134812352D01*
X183768951Y-135313438D01*
X183765248Y-135315061D01*
X182655381Y-135780187D01*
X182651627Y-135781689D01*
X181527165Y-136210390D01*
X181523363Y-136211769D01*
X180385527Y-136603579D01*
X180381683Y-136604833D01*
X179231675Y-136959337D01*
X179227792Y-136960465D01*
X178066821Y-137277290D01*
X178062904Y-137278290D01*
X176892271Y-137557082D01*
X176888323Y-137557955D01*
X175709163Y-137798444D01*
X175705188Y-137799187D01*
X174518871Y-138001094D01*
X174514874Y-138001708D01*
X173322537Y-138164837D01*
X173318523Y-138165319D01*
X172121572Y-138289480D01*
X172117544Y-138289832D01*
X170917132Y-138374906D01*
X170913094Y-138375126D01*
X169710557Y-138421015D01*
X169706515Y-138421103D01*
X168503152Y-138427760D01*
X168499109Y-138427717D01*
X167296108Y-138395136D01*
X167292068Y-138394960D01*
X166090824Y-138323176D01*
X166086792Y-138322869D01*
X164888513Y-138211956D01*
X164884494Y-138211518D01*
X163690458Y-138061596D01*
X163686455Y-138061027D01*
X162497957Y-137872256D01*
X162493974Y-137871557D01*
X162116157Y-137798846D01*
X161312223Y-137644128D01*
X161308281Y-137643302D01*
X160891083Y-137548810D01*
X160134590Y-137377469D01*
X160130661Y-137376511D01*
X158966314Y-137072567D01*
X158962419Y-137071483D01*
X157808520Y-136729713D01*
X157804662Y-136728501D01*
X156976934Y-136453682D01*
X156662575Y-136349309D01*
X156658783Y-136347982D01*
X155529597Y-135931731D01*
X155525829Y-135930271D01*
X154410906Y-135477461D01*
X154407185Y-135475879D01*
X153307574Y-134986942D01*
X153303906Y-134985239D01*
X152220838Y-134460716D01*
X152217228Y-134458895D01*
X151151811Y-133899326D01*
X151148263Y-133897388D01*
X150101679Y-133303393D01*
X150098195Y-133301340D01*
X149071479Y-132673504D01*
X149068134Y-132671382D01*
X148062471Y-132010430D01*
X148059135Y-132008159D01*
X147075526Y-131314748D01*
X147072260Y-131312364D01*
X146708557Y-131037787D01*
X146426983Y-130825213D01*
X150499500Y-130825213D01*
X150499500Y-131037787D01*
X150532754Y-131247743D01*
X150554525Y-131314748D01*
X150598444Y-131449914D01*
X150694951Y-131639320D01*
X150819890Y-131811286D01*
X150970213Y-131961609D01*
X151142179Y-132086548D01*
X151142181Y-132086549D01*
X151142184Y-132086551D01*
X151331588Y-132183057D01*
X151533757Y-132248746D01*
X151743713Y-132282000D01*
X151743714Y-132282000D01*
X151956286Y-132282000D01*
X151956287Y-132282000D01*
X152166243Y-132248746D01*
X152368412Y-132183057D01*
X152557816Y-132086551D01*
X152664130Y-132009310D01*
X152729786Y-131961609D01*
X152729788Y-131961606D01*
X152729792Y-131961604D01*
X152880104Y-131811292D01*
X152880106Y-131811288D01*
X152880109Y-131811286D01*
X153005048Y-131639320D01*
X153005047Y-131639320D01*
X153005051Y-131639316D01*
X153101557Y-131449912D01*
X153167246Y-131247743D01*
X153200500Y-131037787D01*
X153200500Y-130825213D01*
X153167246Y-130615257D01*
X153101557Y-130413088D01*
X153005051Y-130223684D01*
X153005049Y-130223681D01*
X153005048Y-130223679D01*
X152880109Y-130051713D01*
X152729786Y-129901390D01*
X152557820Y-129776451D01*
X152368414Y-129679944D01*
X152368413Y-129679943D01*
X152368412Y-129679943D01*
X152166243Y-129614254D01*
X152166241Y-129614253D01*
X152166240Y-129614253D01*
X152004957Y-129588708D01*
X151956287Y-129581000D01*
X151743713Y-129581000D01*
X151695042Y-129588708D01*
X151533760Y-129614253D01*
X151331585Y-129679944D01*
X151142179Y-129776451D01*
X150970213Y-129901390D01*
X150819890Y-130051713D01*
X150694951Y-130223679D01*
X150598444Y-130413085D01*
X150532753Y-130615260D01*
X150500963Y-130815973D01*
X150499500Y-130825213D01*
X146426983Y-130825213D01*
X146111842Y-130587298D01*
X146108664Y-130584817D01*
X145991320Y-130490067D01*
X145172363Y-129828795D01*
X145169262Y-129826206D01*
X144999742Y-129679944D01*
X144258118Y-129040068D01*
X144255102Y-129037379D01*
X143370082Y-128221959D01*
X143367153Y-128219171D01*
X142509175Y-127375317D01*
X142506339Y-127372435D01*
X141676330Y-126501054D01*
X141673590Y-126498081D01*
X140872459Y-125600133D01*
X140869816Y-125597072D01*
X140098365Y-124673454D01*
X140095824Y-124670309D01*
X139354888Y-123722019D01*
X139352465Y-123718811D01*
X139113975Y-123392161D01*
X138642847Y-122746875D01*
X138640527Y-122743587D01*
X138411548Y-122407477D01*
X138148105Y-122020777D01*
X137962960Y-121749009D01*
X137960739Y-121745631D01*
X137315994Y-120729545D01*
X137313901Y-120726126D01*
X137133483Y-120420183D01*
X136702588Y-119689494D01*
X136700603Y-119685999D01*
X136693815Y-119673580D01*
X136123429Y-118630015D01*
X136121548Y-118626435D01*
X135579124Y-117552221D01*
X135577361Y-117548583D01*
X135070247Y-116457253D01*
X135068603Y-116453559D01*
X134597338Y-115346271D01*
X134595815Y-115342525D01*
X134160890Y-114220425D01*
X134159491Y-114216631D01*
X134024472Y-113831464D01*
X133761397Y-113080994D01*
X133760142Y-113077219D01*
X133399248Y-111929084D01*
X133398127Y-111925303D01*
X133074872Y-110766057D01*
X133073869Y-110762222D01*
X132801398Y-109645581D01*
X132801258Y-109644998D01*
X132798411Y-109633037D01*
X132797802Y-109616121D01*
X132782588Y-109566561D01*
X132781669Y-109562697D01*
X132781676Y-109562558D01*
X132781370Y-109561409D01*
X132773418Y-109526344D01*
X132772553Y-109522206D01*
X132768403Y-109500498D01*
X132755161Y-109431238D01*
X132753008Y-109404369D01*
X132756207Y-109293874D01*
X132759911Y-109267182D01*
X132786916Y-109159987D01*
X132796302Y-109134723D01*
X132845837Y-109035898D01*
X132860462Y-109013259D01*
X132930180Y-108927483D01*
X132949351Y-108908539D01*
X133035972Y-108839849D01*
X133058782Y-108825500D01*
X133161862Y-108775373D01*
X133169847Y-108771835D01*
X133177202Y-108768883D01*
X133181543Y-108767236D01*
X133232425Y-108749028D01*
X133232428Y-108749026D01*
X133239655Y-108745314D01*
X133239802Y-108745601D01*
X133253293Y-108738341D01*
X134155836Y-108376064D01*
X134167474Y-108372054D01*
X134290091Y-108336516D01*
X134443768Y-108274543D01*
X134584473Y-108217802D01*
X134584474Y-108217801D01*
X134584480Y-108217799D01*
X134757010Y-108127011D01*
X134865375Y-108069988D01*
X134865380Y-108069984D01*
X134865387Y-108069981D01*
X135129942Y-107894570D01*
X135375447Y-107693358D01*
X135599393Y-107468398D01*
X135799495Y-107221988D01*
X135973710Y-106956644D01*
X136120259Y-106675073D01*
X136237646Y-106380151D01*
X136324672Y-106074888D01*
X136380450Y-105762402D01*
X136404409Y-105445883D01*
X136400540Y-105295170D01*
X136400500Y-105291989D01*
X136400500Y-97593732D01*
X136400670Y-97587236D01*
X136402026Y-97561380D01*
X136408313Y-97441539D01*
X136391872Y-97117366D01*
X136342137Y-96796609D01*
X136259636Y-96482679D01*
X136145247Y-96178913D01*
X136102330Y-96093005D01*
X136000192Y-95888552D01*
X136000190Y-95888548D01*
X135825992Y-95614646D01*
X135825988Y-95614640D01*
X135624528Y-95360154D01*
X135397926Y-95127757D01*
X135206335Y-94968058D01*
X135148591Y-94919926D01*
X134879185Y-94738877D01*
X134879184Y-94738876D01*
X134879179Y-94738873D01*
X134592571Y-94586535D01*
X134592569Y-94586534D01*
X134592567Y-94586533D01*
X134291785Y-94464513D01*
X134291782Y-94464512D01*
X134291773Y-94464509D01*
X134165789Y-94427966D01*
X134154142Y-94423951D01*
X133251555Y-94061658D01*
X133251554Y-94061657D01*
X133238625Y-94056467D01*
X133230688Y-94050973D01*
X133177646Y-94031989D01*
X133175455Y-94031110D01*
X133175438Y-94031104D01*
X133168143Y-94028176D01*
X133160102Y-94024612D01*
X133057247Y-93974578D01*
X133034409Y-93960201D01*
X132982066Y-93918657D01*
X132948012Y-93891628D01*
X132928821Y-93872645D01*
X132859313Y-93787003D01*
X132844684Y-93764315D01*
X132831003Y-93736953D01*
X132795354Y-93665654D01*
X132785989Y-93640359D01*
X132759174Y-93533348D01*
X132755504Y-93506614D01*
X132752484Y-93396343D01*
X132754686Y-93369452D01*
X132770352Y-93288313D01*
X132771857Y-93282932D01*
X132771728Y-93282903D01*
X132773527Y-93274965D01*
X132773530Y-93274962D01*
X132782808Y-93234050D01*
X132785254Y-93224909D01*
X132797634Y-93184866D01*
X132797753Y-93181719D01*
X132801198Y-93157035D01*
X132829187Y-93042331D01*
X133073872Y-92039562D01*
X133074867Y-92035757D01*
X133398132Y-90876479D01*
X133399243Y-90872731D01*
X133437150Y-90752135D01*
X138399500Y-90752135D01*
X138399500Y-92847870D01*
X138399501Y-92847876D01*
X138405908Y-92907483D01*
X138456202Y-93042328D01*
X138456203Y-93042329D01*
X138456204Y-93042331D01*
X138542454Y-93157546D01*
X138562773Y-93172756D01*
X138604644Y-93228688D01*
X138612463Y-93272023D01*
X138612463Y-97561385D01*
X138643253Y-97755789D01*
X138704080Y-97942993D01*
X138793439Y-98118368D01*
X138909135Y-98277609D01*
X138909137Y-98277611D01*
X141267106Y-100635580D01*
X141297356Y-100684942D01*
X141359433Y-100875996D01*
X141465295Y-101083760D01*
X141466657Y-101086433D01*
X141605483Y-101277510D01*
X141772490Y-101444517D01*
X141963567Y-101583343D01*
X142000533Y-101602178D01*
X142174003Y-101690566D01*
X142174005Y-101690566D01*
X142174008Y-101690568D01*
X142294412Y-101729689D01*
X142398631Y-101763553D01*
X142631903Y-101800500D01*
X142631908Y-101800500D01*
X161827111Y-101800500D01*
X161894150Y-101820185D01*
X161914791Y-101836818D01*
X163149390Y-103071418D01*
X163942541Y-103864569D01*
X163942546Y-103864573D01*
X164109205Y-103985656D01*
X164133617Y-104003393D01*
X164267709Y-104071716D01*
X164344053Y-104110616D01*
X164344055Y-104110616D01*
X164344058Y-104110618D01*
X164457858Y-104147594D01*
X164568681Y-104183603D01*
X164801953Y-104220550D01*
X164801958Y-104220550D01*
X164801959Y-104220550D01*
X165038142Y-104220550D01*
X166211670Y-104220550D01*
X166258685Y-104232551D01*
X166259359Y-104230747D01*
X166324677Y-104255108D01*
X166402517Y-104284141D01*
X166462127Y-104290550D01*
X167057872Y-104290549D01*
X167117483Y-104284141D01*
X167252331Y-104233846D01*
X167367546Y-104147596D01*
X167453796Y-104032381D01*
X167504091Y-103897533D01*
X167510500Y-103837923D01*
X167510499Y-103660796D01*
X167530183Y-103593757D01*
X167534173Y-103587921D01*
X167593343Y-103506483D01*
X167700568Y-103296042D01*
X167773553Y-103071418D01*
X167810500Y-102838147D01*
X167810500Y-102601952D01*
X167773553Y-102368681D01*
X167700566Y-102144053D01*
X167593342Y-101933616D01*
X167534181Y-101852188D01*
X167510701Y-101786381D01*
X167510499Y-101779302D01*
X167510499Y-101602179D01*
X167510498Y-101602173D01*
X167504091Y-101542566D01*
X167453797Y-101407721D01*
X167453793Y-101407714D01*
X167367547Y-101292505D01*
X167367544Y-101292502D01*
X167252335Y-101206256D01*
X167252328Y-101206252D01*
X167117486Y-101155960D01*
X167117485Y-101155959D01*
X167117483Y-101155959D01*
X167057873Y-101149550D01*
X167057863Y-101149550D01*
X166462129Y-101149550D01*
X166462123Y-101149551D01*
X166402516Y-101155958D01*
X166259359Y-101209353D01*
X166258685Y-101207548D01*
X166211670Y-101219550D01*
X165592940Y-101219550D01*
X165525901Y-101199865D01*
X165505259Y-101183231D01*
X163477512Y-99155485D01*
X163477511Y-99155484D01*
X163286434Y-99016657D01*
X163075996Y-98909433D01*
X162851368Y-98836446D01*
X162618097Y-98799500D01*
X162618092Y-98799500D01*
X143019336Y-98799500D01*
X142952297Y-98779815D01*
X142931655Y-98763181D01*
X141149782Y-96981308D01*
X141116297Y-96919985D01*
X141113463Y-96893627D01*
X141113463Y-93327476D01*
X141133148Y-93260437D01*
X141163150Y-93228210D01*
X141257546Y-93157546D01*
X141343796Y-93042331D01*
X141394091Y-92907483D01*
X141400500Y-92847873D01*
X141400499Y-90752128D01*
X141394091Y-90692517D01*
X141359581Y-90599992D01*
X141343797Y-90557671D01*
X141343793Y-90557664D01*
X141257547Y-90442455D01*
X141257544Y-90442452D01*
X141142335Y-90356206D01*
X141142328Y-90356202D01*
X141007482Y-90305908D01*
X141007483Y-90305908D01*
X140947883Y-90299501D01*
X140947881Y-90299500D01*
X140947873Y-90299500D01*
X140947864Y-90299500D01*
X138852129Y-90299500D01*
X138852123Y-90299501D01*
X138792516Y-90305908D01*
X138657671Y-90356202D01*
X138657664Y-90356206D01*
X138542455Y-90442452D01*
X138542452Y-90442455D01*
X138456206Y-90557664D01*
X138456202Y-90557671D01*
X138405908Y-90692517D01*
X138401340Y-90735010D01*
X138399501Y-90752123D01*
X138399500Y-90752135D01*
X133437150Y-90752135D01*
X133760148Y-89724562D01*
X133761391Y-89720824D01*
X134159492Y-88585162D01*
X134160890Y-88581374D01*
X134595833Y-87459228D01*
X134597319Y-87455574D01*
X135068614Y-86348213D01*
X135070234Y-86344573D01*
X135577370Y-85253196D01*
X135579124Y-85249578D01*
X135964962Y-84485468D01*
X138399500Y-84485468D01*
X138399500Y-86581203D01*
X138399501Y-86581209D01*
X138405908Y-86640816D01*
X138456202Y-86775661D01*
X138456206Y-86775668D01*
X138542452Y-86890877D01*
X138542455Y-86890880D01*
X138657664Y-86977126D01*
X138657671Y-86977130D01*
X138792517Y-87027424D01*
X138792516Y-87027424D01*
X138799444Y-87028168D01*
X138852127Y-87033833D01*
X139801102Y-87033832D01*
X139868141Y-87053516D01*
X139888783Y-87070151D01*
X143768181Y-90949548D01*
X143801666Y-91010871D01*
X143804500Y-91037229D01*
X143804500Y-91450001D01*
X143804501Y-91450019D01*
X143815000Y-91552796D01*
X143815001Y-91552799D01*
X143830659Y-91600050D01*
X143870186Y-91719334D01*
X143962288Y-91868656D01*
X144086344Y-91992712D01*
X144235666Y-92084814D01*
X144402203Y-92139999D01*
X144504991Y-92150500D01*
X145555008Y-92150499D01*
X145555016Y-92150498D01*
X145555019Y-92150498D01*
X145625629Y-92143285D01*
X145657797Y-92139999D01*
X145824334Y-92084814D01*
X145952509Y-92005755D01*
X146019899Y-91987315D01*
X146082698Y-92005754D01*
X146216203Y-92088100D01*
X146382740Y-92143285D01*
X146485528Y-92153786D01*
X147535545Y-92153785D01*
X147535553Y-92153784D01*
X147535556Y-92153784D01*
X147591839Y-92148034D01*
X147638334Y-92143285D01*
X147804871Y-92088100D01*
X147901499Y-92028499D01*
X147968890Y-92010059D01*
X148035554Y-92030981D01*
X148080324Y-92084623D01*
X148088985Y-92153954D01*
X148072135Y-92199133D01*
X148052689Y-92230661D01*
X148052686Y-92230666D01*
X147997501Y-92397203D01*
X147997501Y-92397204D01*
X147997500Y-92397204D01*
X147987000Y-92499983D01*
X147987000Y-93500001D01*
X147987001Y-93500019D01*
X147997500Y-93602796D01*
X147997501Y-93602799D01*
X148014308Y-93653517D01*
X148052686Y-93769334D01*
X148144788Y-93918656D01*
X148268844Y-94042712D01*
X148418166Y-94134814D01*
X148584703Y-94189999D01*
X148687491Y-94200500D01*
X149312508Y-94200499D01*
X149312516Y-94200498D01*
X149312519Y-94200498D01*
X149368802Y-94194748D01*
X149415297Y-94189999D01*
X149581834Y-94134814D01*
X149731156Y-94042712D01*
X149824819Y-93949049D01*
X149886142Y-93915564D01*
X149955834Y-93920548D01*
X150000181Y-93949049D01*
X150093844Y-94042712D01*
X150243166Y-94134814D01*
X150409703Y-94189999D01*
X150512491Y-94200500D01*
X151137508Y-94200499D01*
X151137516Y-94200498D01*
X151137519Y-94200498D01*
X151193802Y-94194748D01*
X151240297Y-94189999D01*
X151406834Y-94134814D01*
X151556156Y-94042712D01*
X151680212Y-93918656D01*
X151772314Y-93769334D01*
X151827499Y-93602797D01*
X151838000Y-93500009D01*
X151837999Y-92767683D01*
X151857683Y-92700645D01*
X151874313Y-92680008D01*
X153244113Y-91310209D01*
X153272290Y-91268040D01*
X153320775Y-91195477D01*
X153351707Y-91120800D01*
X153373580Y-91067995D01*
X153390018Y-90985354D01*
X153400500Y-90932659D01*
X153400500Y-88641518D01*
X153420185Y-88574479D01*
X153436819Y-88553837D01*
X153653837Y-88336819D01*
X153715160Y-88303334D01*
X153741518Y-88300500D01*
X187258481Y-88300500D01*
X187325520Y-88320185D01*
X187346162Y-88336819D01*
X188463181Y-89453838D01*
X188496666Y-89515161D01*
X188499500Y-89541519D01*
X188499500Y-117358481D01*
X188479815Y-117425520D01*
X188463181Y-117446162D01*
X187747180Y-118162163D01*
X187685857Y-118195648D01*
X187616165Y-118190664D01*
X187560232Y-118148792D01*
X187535815Y-118083328D01*
X187535499Y-118074482D01*
X187535499Y-118052129D01*
X187535498Y-118052123D01*
X187535497Y-118052116D01*
X187529091Y-117992517D01*
X187478796Y-117857669D01*
X187478795Y-117857668D01*
X187478793Y-117857664D01*
X187392547Y-117742455D01*
X187392544Y-117742452D01*
X187277335Y-117656206D01*
X187277328Y-117656202D01*
X187142482Y-117605908D01*
X187142483Y-117605908D01*
X187082883Y-117599501D01*
X187082881Y-117599500D01*
X187082873Y-117599500D01*
X187082864Y-117599500D01*
X185887129Y-117599500D01*
X185887123Y-117599501D01*
X185827516Y-117605908D01*
X185684359Y-117659303D01*
X185683148Y-117656057D01*
X185631132Y-117667363D01*
X185596434Y-117657175D01*
X185595641Y-117659303D01*
X185452482Y-117605908D01*
X185452483Y-117605908D01*
X185392883Y-117599501D01*
X185392881Y-117599500D01*
X185392873Y-117599500D01*
X185392864Y-117599500D01*
X183097129Y-117599500D01*
X183097123Y-117599501D01*
X183037516Y-117605908D01*
X182902671Y-117656202D01*
X182902664Y-117656206D01*
X182787455Y-117742452D01*
X182787452Y-117742455D01*
X182701206Y-117857664D01*
X182701202Y-117857671D01*
X182650908Y-117992517D01*
X182644501Y-118052116D01*
X182644501Y-118052123D01*
X182644500Y-118052135D01*
X182644500Y-118175500D01*
X182624815Y-118242539D01*
X182572011Y-118288294D01*
X182520500Y-118299500D01*
X176926166Y-118299500D01*
X176859127Y-118279815D01*
X176813372Y-118227011D01*
X176802166Y-118175500D01*
X176802166Y-118052129D01*
X176802165Y-118052123D01*
X176802164Y-118052116D01*
X176795758Y-117992517D01*
X176745463Y-117857669D01*
X176745462Y-117857668D01*
X176745460Y-117857664D01*
X176659214Y-117742455D01*
X176659211Y-117742452D01*
X176544002Y-117656206D01*
X176543995Y-117656202D01*
X176409149Y-117605908D01*
X176409150Y-117605908D01*
X176349550Y-117599501D01*
X176349548Y-117599500D01*
X176349540Y-117599500D01*
X176349531Y-117599500D01*
X175153796Y-117599500D01*
X175153790Y-117599501D01*
X175094183Y-117605908D01*
X174951026Y-117659303D01*
X174949815Y-117656057D01*
X174897799Y-117667363D01*
X174863101Y-117657175D01*
X174862308Y-117659303D01*
X174719149Y-117605908D01*
X174719150Y-117605908D01*
X174659550Y-117599501D01*
X174659548Y-117599500D01*
X174659540Y-117599500D01*
X174659531Y-117599500D01*
X172363796Y-117599500D01*
X172363790Y-117599501D01*
X172304183Y-117605908D01*
X172169338Y-117656202D01*
X172169331Y-117656206D01*
X172054122Y-117742452D01*
X172054119Y-117742455D01*
X171967873Y-117857664D01*
X171967869Y-117857671D01*
X171917575Y-117992517D01*
X171911168Y-118052116D01*
X171911168Y-118052123D01*
X171911167Y-118052135D01*
X171911167Y-118175500D01*
X171891482Y-118242539D01*
X171838678Y-118288294D01*
X171787167Y-118299500D01*
X166192832Y-118299500D01*
X166125793Y-118279815D01*
X166080038Y-118227011D01*
X166068832Y-118175500D01*
X166068832Y-118052129D01*
X166068831Y-118052123D01*
X166068830Y-118052116D01*
X166062424Y-117992517D01*
X166012129Y-117857669D01*
X166012128Y-117857668D01*
X166012126Y-117857664D01*
X165925880Y-117742455D01*
X165925877Y-117742452D01*
X165810668Y-117656206D01*
X165810661Y-117656202D01*
X165675815Y-117605908D01*
X165675816Y-117605908D01*
X165616216Y-117599501D01*
X165616214Y-117599500D01*
X165616206Y-117599500D01*
X165616197Y-117599500D01*
X164420462Y-117599500D01*
X164420456Y-117599501D01*
X164360849Y-117605908D01*
X164217692Y-117659303D01*
X164216481Y-117656057D01*
X164164465Y-117667363D01*
X164129767Y-117657175D01*
X164128974Y-117659303D01*
X163985815Y-117605908D01*
X163985816Y-117605908D01*
X163926216Y-117599501D01*
X163926214Y-117599500D01*
X163926206Y-117599500D01*
X163926197Y-117599500D01*
X161630462Y-117599500D01*
X161630456Y-117599501D01*
X161570849Y-117605908D01*
X161436004Y-117656202D01*
X161435997Y-117656206D01*
X161320788Y-117742452D01*
X161320785Y-117742455D01*
X161234539Y-117857664D01*
X161234535Y-117857671D01*
X161184241Y-117992517D01*
X161177834Y-118052116D01*
X161177834Y-118052123D01*
X161177833Y-118052135D01*
X161177833Y-118175500D01*
X161158148Y-118242539D01*
X161105344Y-118288294D01*
X161053833Y-118299500D01*
X155459499Y-118299500D01*
X155392460Y-118279815D01*
X155346705Y-118227011D01*
X155335499Y-118175500D01*
X155335499Y-118052129D01*
X155335498Y-118052123D01*
X155335497Y-118052116D01*
X155329091Y-117992517D01*
X155278796Y-117857669D01*
X155278795Y-117857668D01*
X155278793Y-117857664D01*
X155192547Y-117742455D01*
X155192544Y-117742452D01*
X155077335Y-117656206D01*
X155077328Y-117656202D01*
X154942482Y-117605908D01*
X154942483Y-117605908D01*
X154882883Y-117599501D01*
X154882881Y-117599500D01*
X154882873Y-117599500D01*
X154882864Y-117599500D01*
X153687129Y-117599500D01*
X153687123Y-117599501D01*
X153627516Y-117605908D01*
X153484359Y-117659303D01*
X153483148Y-117656057D01*
X153431132Y-117667363D01*
X153396434Y-117657175D01*
X153395641Y-117659303D01*
X153252482Y-117605908D01*
X153252483Y-117605908D01*
X153192883Y-117599501D01*
X153192881Y-117599500D01*
X153192873Y-117599500D01*
X153192865Y-117599500D01*
X152869500Y-117599500D01*
X152802461Y-117579815D01*
X152756706Y-117527011D01*
X152745500Y-117475500D01*
X152745500Y-114249286D01*
X152765185Y-114182247D01*
X152771116Y-114173810D01*
X152777698Y-114165233D01*
X152835687Y-114025236D01*
X152850500Y-113912720D01*
X152850500Y-113287280D01*
X152835687Y-113174764D01*
X152777698Y-113034767D01*
X152777697Y-113034766D01*
X152777697Y-113034765D01*
X152771124Y-113026199D01*
X152745930Y-112961029D01*
X152745500Y-112950713D01*
X152745500Y-109276008D01*
X152745500Y-109276007D01*
X152740070Y-109248712D01*
X152738275Y-109218148D01*
X152737904Y-109218134D01*
X152738000Y-109215687D01*
X152738000Y-108784313D01*
X152737999Y-108784298D01*
X152737297Y-108775383D01*
X152735098Y-108747431D01*
X152734566Y-108745601D01*
X152689245Y-108589606D01*
X152689244Y-108589603D01*
X152689244Y-108589602D01*
X152605581Y-108448135D01*
X152605579Y-108448133D01*
X152605576Y-108448129D01*
X152489370Y-108331923D01*
X152489362Y-108331917D01*
X152347896Y-108248255D01*
X152347893Y-108248254D01*
X152190073Y-108202402D01*
X152190067Y-108202401D01*
X152153201Y-108199500D01*
X152153194Y-108199500D01*
X150987000Y-108199500D01*
X150919961Y-108179815D01*
X150874206Y-108127011D01*
X150863000Y-108075500D01*
X150863000Y-107834313D01*
X150862999Y-107834298D01*
X150860098Y-107797432D01*
X150860097Y-107797426D01*
X150814245Y-107639606D01*
X150814244Y-107639603D01*
X150814244Y-107639602D01*
X150730581Y-107498135D01*
X150730579Y-107498133D01*
X150730576Y-107498129D01*
X150614370Y-107381923D01*
X150614362Y-107381917D01*
X150472896Y-107298255D01*
X150472893Y-107298254D01*
X150315073Y-107252402D01*
X150315067Y-107252401D01*
X150278201Y-107249500D01*
X150278194Y-107249500D01*
X148971806Y-107249500D01*
X148971798Y-107249500D01*
X148934932Y-107252401D01*
X148934926Y-107252402D01*
X148777106Y-107298254D01*
X148777101Y-107298256D01*
X148729002Y-107326701D01*
X148661278Y-107343882D01*
X148595016Y-107321722D01*
X148590396Y-107318344D01*
X148585452Y-107314550D01*
X148585451Y-107314549D01*
X148465233Y-107222302D01*
X148465232Y-107222301D01*
X148465230Y-107222300D01*
X148374731Y-107184814D01*
X148325236Y-107164313D01*
X148311171Y-107162461D01*
X148212727Y-107149500D01*
X148212720Y-107149500D01*
X147587280Y-107149500D01*
X147587272Y-107149500D01*
X147474764Y-107164313D01*
X147474763Y-107164313D01*
X147334769Y-107222300D01*
X147334766Y-107222302D01*
X147268069Y-107273481D01*
X147202900Y-107298675D01*
X147134455Y-107284637D01*
X147115669Y-107272369D01*
X147112408Y-107269790D01*
X147112406Y-107269788D01*
X146963084Y-107177686D01*
X146796547Y-107122501D01*
X146796545Y-107122500D01*
X146693760Y-107112000D01*
X145693748Y-107112000D01*
X145693730Y-107112001D01*
X145590953Y-107122500D01*
X145590950Y-107122501D01*
X145424418Y-107177685D01*
X145424413Y-107177687D01*
X145328118Y-107237082D01*
X145275094Y-107269788D01*
X145275092Y-107269789D01*
X145268947Y-107273580D01*
X145267784Y-107271695D01*
X145212984Y-107293801D01*
X145144343Y-107280758D01*
X145118139Y-107261676D01*
X145118069Y-107261766D01*
X145115824Y-107259991D01*
X145113193Y-107258075D01*
X145112407Y-107257289D01*
X145112406Y-107257288D01*
X145019638Y-107200069D01*
X144963086Y-107165187D01*
X144963081Y-107165185D01*
X144940384Y-107157664D01*
X144796547Y-107110001D01*
X144796545Y-107110000D01*
X144693760Y-107099500D01*
X144068748Y-107099500D01*
X144068730Y-107099501D01*
X143965953Y-107110000D01*
X143965950Y-107110001D01*
X143799418Y-107165185D01*
X143799413Y-107165187D01*
X143650092Y-107257289D01*
X143556431Y-107350951D01*
X143495108Y-107384436D01*
X143425416Y-107379452D01*
X143381069Y-107350951D01*
X143287407Y-107257289D01*
X143287406Y-107257288D01*
X143194638Y-107200069D01*
X143138086Y-107165187D01*
X143138081Y-107165185D01*
X143115384Y-107157664D01*
X142971547Y-107110001D01*
X142971545Y-107110000D01*
X142868760Y-107099500D01*
X142243748Y-107099500D01*
X142243730Y-107099501D01*
X142140953Y-107110000D01*
X142140950Y-107110001D01*
X141974418Y-107165185D01*
X141974413Y-107165187D01*
X141825092Y-107257289D01*
X141701039Y-107381342D01*
X141630038Y-107496454D01*
X141578090Y-107543178D01*
X141509127Y-107554401D01*
X141445045Y-107526557D01*
X141406189Y-107468488D01*
X141400499Y-107431357D01*
X141400499Y-107352129D01*
X141400498Y-107352123D01*
X141400497Y-107352116D01*
X141394091Y-107292517D01*
X141389705Y-107280758D01*
X141343797Y-107157671D01*
X141343793Y-107157664D01*
X141257547Y-107042455D01*
X141257544Y-107042452D01*
X141142335Y-106956206D01*
X141142328Y-106956202D01*
X141007482Y-106905908D01*
X141007483Y-106905908D01*
X140947883Y-106899501D01*
X140947881Y-106899500D01*
X140947873Y-106899500D01*
X140947864Y-106899500D01*
X138852129Y-106899500D01*
X138852123Y-106899501D01*
X138792516Y-106905908D01*
X138657671Y-106956202D01*
X138657664Y-106956206D01*
X138542455Y-107042452D01*
X138542452Y-107042455D01*
X138456206Y-107157664D01*
X138456202Y-107157671D01*
X138405908Y-107292517D01*
X138401474Y-107333763D01*
X138399501Y-107352123D01*
X138399500Y-107352135D01*
X138399500Y-109447870D01*
X138399501Y-109447876D01*
X138405908Y-109507483D01*
X138456202Y-109642328D01*
X138456206Y-109642335D01*
X138542452Y-109757544D01*
X138542455Y-109757547D01*
X138657664Y-109843793D01*
X138657671Y-109843797D01*
X138792517Y-109894091D01*
X138792516Y-109894091D01*
X138799444Y-109894835D01*
X138852127Y-109900500D01*
X140947872Y-109900499D01*
X141007483Y-109894091D01*
X141142331Y-109843796D01*
X141257546Y-109757546D01*
X141343796Y-109642331D01*
X141394091Y-109507483D01*
X141400500Y-109447873D01*
X141400500Y-109174500D01*
X141403050Y-109165814D01*
X141401762Y-109156853D01*
X141412740Y-109132812D01*
X141420185Y-109107461D01*
X141427025Y-109101533D01*
X141430787Y-109093297D01*
X141453021Y-109079007D01*
X141472989Y-109061706D01*
X141483503Y-109059418D01*
X141489565Y-109055523D01*
X141524500Y-109050500D01*
X141528112Y-109050500D01*
X141595151Y-109070185D01*
X141633649Y-109109401D01*
X141701038Y-109218656D01*
X141825094Y-109342712D01*
X141974416Y-109434814D01*
X142140953Y-109489999D01*
X142243741Y-109500500D01*
X142868758Y-109500499D01*
X142868766Y-109500498D01*
X142868769Y-109500498D01*
X142925052Y-109494748D01*
X142971547Y-109489999D01*
X143138084Y-109434814D01*
X143287406Y-109342712D01*
X143381069Y-109249049D01*
X143442392Y-109215564D01*
X143512084Y-109220548D01*
X143556431Y-109249049D01*
X143650094Y-109342712D01*
X143799416Y-109434814D01*
X143965953Y-109489999D01*
X144068741Y-109500500D01*
X144693758Y-109500499D01*
X144693766Y-109500498D01*
X144693769Y-109500498D01*
X144750052Y-109494748D01*
X144796547Y-109489999D01*
X144963084Y-109434814D01*
X145112406Y-109342712D01*
X145236462Y-109218656D01*
X145291833Y-109128883D01*
X145343778Y-109082161D01*
X145412740Y-109070938D01*
X145436369Y-109076274D01*
X145590953Y-109127499D01*
X145693741Y-109138000D01*
X146693758Y-109137999D01*
X146693766Y-109137998D01*
X146693769Y-109137998D01*
X146782959Y-109128887D01*
X146796547Y-109127499D01*
X146963084Y-109072314D01*
X147112406Y-108980212D01*
X147116498Y-108976120D01*
X147177819Y-108942631D01*
X147247511Y-108947612D01*
X147279671Y-108965421D01*
X147334765Y-109007697D01*
X147334767Y-109007698D01*
X147474764Y-109065687D01*
X147587280Y-109080500D01*
X147587287Y-109080500D01*
X148212713Y-109080500D01*
X148212720Y-109080500D01*
X148325236Y-109065687D01*
X148465233Y-109007698D01*
X148585451Y-108915451D01*
X148640144Y-108844172D01*
X148696569Y-108802972D01*
X148766315Y-108798817D01*
X148773114Y-108800585D01*
X148777100Y-108801743D01*
X148777102Y-108801744D01*
X148934931Y-108847598D01*
X148971806Y-108850500D01*
X150138000Y-108850500D01*
X150205039Y-108870185D01*
X150250794Y-108922989D01*
X150262000Y-108974500D01*
X150262000Y-109215701D01*
X150264901Y-109252567D01*
X150264902Y-109252573D01*
X150310754Y-109410393D01*
X150310755Y-109410396D01*
X150310756Y-109410398D01*
X150348181Y-109473681D01*
X150394417Y-109551862D01*
X150394423Y-109551870D01*
X150510629Y-109668076D01*
X150510633Y-109668079D01*
X150510635Y-109668081D01*
X150652102Y-109751744D01*
X150672076Y-109757547D01*
X150809926Y-109797597D01*
X150809929Y-109797597D01*
X150809931Y-109797598D01*
X150846806Y-109800500D01*
X151220500Y-109800500D01*
X151287539Y-109820185D01*
X151333294Y-109872989D01*
X151344500Y-109924500D01*
X151344500Y-112681567D01*
X151324815Y-112748606D01*
X151272011Y-112794361D01*
X151267954Y-112796127D01*
X151204773Y-112822298D01*
X151204770Y-112822299D01*
X151084549Y-112914549D01*
X150998877Y-113026199D01*
X150992300Y-113034770D01*
X150934313Y-113174763D01*
X150934313Y-113174764D01*
X150919500Y-113287272D01*
X150919500Y-113912727D01*
X150932461Y-114011171D01*
X150934313Y-114025236D01*
X150992302Y-114165233D01*
X151084549Y-114285451D01*
X151204767Y-114377698D01*
X151204768Y-114377698D01*
X151204769Y-114377699D01*
X151267952Y-114403870D01*
X151322356Y-114447710D01*
X151344421Y-114514005D01*
X151344500Y-114518431D01*
X151344500Y-117475500D01*
X151324815Y-117542539D01*
X151272011Y-117588294D01*
X151220500Y-117599500D01*
X150897130Y-117599500D01*
X150897123Y-117599501D01*
X150837516Y-117605908D01*
X150702671Y-117656202D01*
X150702664Y-117656206D01*
X150587455Y-117742452D01*
X150587452Y-117742455D01*
X150501206Y-117857664D01*
X150501202Y-117857671D01*
X150450908Y-117992517D01*
X150444501Y-118052116D01*
X150444501Y-118052123D01*
X150444500Y-118052135D01*
X150444500Y-119947870D01*
X150444501Y-119947876D01*
X150450908Y-120007483D01*
X150501202Y-120142328D01*
X150501206Y-120142335D01*
X150587452Y-120257544D01*
X150587455Y-120257547D01*
X150702664Y-120343793D01*
X150702671Y-120343797D01*
X150747618Y-120360561D01*
X150837517Y-120394091D01*
X150897127Y-120400500D01*
X151220500Y-120400499D01*
X151287539Y-120420183D01*
X151333294Y-120472987D01*
X151344500Y-120524499D01*
X151344500Y-121286006D01*
X151344500Y-121423994D01*
X151344500Y-121423996D01*
X151344499Y-121423996D01*
X151371418Y-121559322D01*
X151371421Y-121559332D01*
X151424222Y-121686807D01*
X151500887Y-121801545D01*
X151643454Y-121944112D01*
X151758192Y-122020777D01*
X151885667Y-122073578D01*
X151885672Y-122073580D01*
X151885676Y-122073580D01*
X151885677Y-122073581D01*
X152021003Y-122100500D01*
X152021006Y-122100500D01*
X189668996Y-122100500D01*
X189760040Y-122082389D01*
X189804328Y-122073580D01*
X189868069Y-122047177D01*
X189931807Y-122020777D01*
X189931808Y-122020776D01*
X189931811Y-122020775D01*
X190046543Y-121944114D01*
X190944114Y-121046543D01*
X191020775Y-120931811D01*
X191073580Y-120804328D01*
X191094683Y-120698238D01*
X191100500Y-120668996D01*
X191100500Y-101293713D01*
X201649500Y-101293713D01*
X201649500Y-101506287D01*
X201682754Y-101716243D01*
X201726925Y-101852188D01*
X201748444Y-101918414D01*
X201844951Y-102107820D01*
X201969890Y-102279786D01*
X202120213Y-102430109D01*
X202292179Y-102555048D01*
X202292181Y-102555049D01*
X202292184Y-102555051D01*
X202481588Y-102651557D01*
X202683757Y-102717246D01*
X202893713Y-102750500D01*
X202893714Y-102750500D01*
X203106286Y-102750500D01*
X203106287Y-102750500D01*
X203316243Y-102717246D01*
X203518412Y-102651557D01*
X203707816Y-102555051D01*
X203729789Y-102539086D01*
X203879786Y-102430109D01*
X203879788Y-102430106D01*
X203879792Y-102430104D01*
X204030104Y-102279792D01*
X204030106Y-102279788D01*
X204030109Y-102279786D01*
X204155048Y-102107820D01*
X204155047Y-102107820D01*
X204155051Y-102107816D01*
X204251557Y-101918412D01*
X204317246Y-101716243D01*
X204350500Y-101506287D01*
X204350500Y-101293713D01*
X204317246Y-101083757D01*
X204251557Y-100881588D01*
X204155051Y-100692184D01*
X204155049Y-100692181D01*
X204155048Y-100692179D01*
X204030109Y-100520213D01*
X203879786Y-100369890D01*
X203707820Y-100244951D01*
X203518414Y-100148444D01*
X203518413Y-100148443D01*
X203518412Y-100148443D01*
X203316243Y-100082754D01*
X203316241Y-100082753D01*
X203316240Y-100082753D01*
X203154957Y-100057208D01*
X203106287Y-100049500D01*
X202893713Y-100049500D01*
X202845042Y-100057208D01*
X202683760Y-100082753D01*
X202481585Y-100148444D01*
X202292179Y-100244951D01*
X202120213Y-100369890D01*
X201969890Y-100520213D01*
X201844951Y-100692179D01*
X201748444Y-100881585D01*
X201682753Y-101083760D01*
X201663352Y-101206254D01*
X201649500Y-101293713D01*
X191100500Y-101293713D01*
X191100500Y-86331004D01*
X191073581Y-86195677D01*
X191073580Y-86195676D01*
X191073580Y-86195672D01*
X191020775Y-86068189D01*
X191013664Y-86057546D01*
X190944114Y-85953457D01*
X190944112Y-85953454D01*
X189246545Y-84255887D01*
X189131807Y-84179222D01*
X189004332Y-84126421D01*
X189004322Y-84126418D01*
X188868996Y-84099500D01*
X188868994Y-84099500D01*
X188868993Y-84099500D01*
X187079499Y-84099500D01*
X187012460Y-84079815D01*
X186966705Y-84027011D01*
X186955499Y-83975500D01*
X186955499Y-83852129D01*
X186955498Y-83852123D01*
X186955497Y-83852116D01*
X186949091Y-83792517D01*
X186918722Y-83711094D01*
X186898797Y-83657671D01*
X186898793Y-83657664D01*
X186812547Y-83542455D01*
X186812544Y-83542452D01*
X186697335Y-83456206D01*
X186697328Y-83456202D01*
X186562482Y-83405908D01*
X186562483Y-83405908D01*
X186502883Y-83399501D01*
X186502881Y-83399500D01*
X186502873Y-83399500D01*
X186502864Y-83399500D01*
X184207129Y-83399500D01*
X184207123Y-83399501D01*
X184147516Y-83405908D01*
X184004359Y-83459303D01*
X184003148Y-83456057D01*
X183951132Y-83467363D01*
X183916434Y-83457175D01*
X183915641Y-83459303D01*
X183772482Y-83405908D01*
X183772483Y-83405908D01*
X183712883Y-83399501D01*
X183712881Y-83399500D01*
X183712873Y-83399500D01*
X183712864Y-83399500D01*
X182517129Y-83399500D01*
X182517123Y-83399501D01*
X182457516Y-83405908D01*
X182322671Y-83456202D01*
X182322664Y-83456206D01*
X182207455Y-83542452D01*
X182207452Y-83542455D01*
X182121206Y-83657664D01*
X182121202Y-83657671D01*
X182070908Y-83792517D01*
X182064501Y-83852116D01*
X182064501Y-83852123D01*
X182064500Y-83852135D01*
X182064500Y-83975500D01*
X182044815Y-84042539D01*
X181992011Y-84088294D01*
X181940500Y-84099500D01*
X176346166Y-84099500D01*
X176279127Y-84079815D01*
X176233372Y-84027011D01*
X176222166Y-83975500D01*
X176222166Y-83852129D01*
X176222165Y-83852123D01*
X176222164Y-83852116D01*
X176215758Y-83792517D01*
X176185389Y-83711094D01*
X176165464Y-83657671D01*
X176165460Y-83657664D01*
X176079214Y-83542455D01*
X176079211Y-83542452D01*
X175964002Y-83456206D01*
X175963995Y-83456202D01*
X175829149Y-83405908D01*
X175829150Y-83405908D01*
X175769550Y-83399501D01*
X175769548Y-83399500D01*
X175769540Y-83399500D01*
X175769531Y-83399500D01*
X173473796Y-83399500D01*
X173473790Y-83399501D01*
X173414183Y-83405908D01*
X173271026Y-83459303D01*
X173269815Y-83456057D01*
X173217799Y-83467363D01*
X173183101Y-83457175D01*
X173182308Y-83459303D01*
X173039149Y-83405908D01*
X173039150Y-83405908D01*
X172979550Y-83399501D01*
X172979548Y-83399500D01*
X172979540Y-83399500D01*
X172979531Y-83399500D01*
X171783796Y-83399500D01*
X171783790Y-83399501D01*
X171724183Y-83405908D01*
X171589338Y-83456202D01*
X171589331Y-83456206D01*
X171474122Y-83542452D01*
X171474119Y-83542455D01*
X171387873Y-83657664D01*
X171387869Y-83657671D01*
X171337575Y-83792517D01*
X171331168Y-83852116D01*
X171331168Y-83852123D01*
X171331167Y-83852135D01*
X171331167Y-83975500D01*
X171311482Y-84042539D01*
X171258678Y-84088294D01*
X171207167Y-84099500D01*
X165612832Y-84099500D01*
X165545793Y-84079815D01*
X165500038Y-84027011D01*
X165488832Y-83975500D01*
X165488832Y-83852129D01*
X165488831Y-83852123D01*
X165488830Y-83852116D01*
X165482424Y-83792517D01*
X165452055Y-83711094D01*
X165432130Y-83657671D01*
X165432126Y-83657664D01*
X165345880Y-83542455D01*
X165345877Y-83542452D01*
X165230668Y-83456206D01*
X165230661Y-83456202D01*
X165095815Y-83405908D01*
X165095816Y-83405908D01*
X165036216Y-83399501D01*
X165036214Y-83399500D01*
X165036206Y-83399500D01*
X165036197Y-83399500D01*
X162740462Y-83399500D01*
X162740456Y-83399501D01*
X162680849Y-83405908D01*
X162537692Y-83459303D01*
X162536481Y-83456057D01*
X162484465Y-83467363D01*
X162449767Y-83457175D01*
X162448974Y-83459303D01*
X162305815Y-83405908D01*
X162305816Y-83405908D01*
X162246216Y-83399501D01*
X162246214Y-83399500D01*
X162246206Y-83399500D01*
X162246197Y-83399500D01*
X161050462Y-83399500D01*
X161050456Y-83399501D01*
X160990849Y-83405908D01*
X160856004Y-83456202D01*
X160855997Y-83456206D01*
X160740788Y-83542452D01*
X160740785Y-83542455D01*
X160654539Y-83657664D01*
X160654535Y-83657671D01*
X160604241Y-83792517D01*
X160597834Y-83852116D01*
X160597834Y-83852123D01*
X160597833Y-83852135D01*
X160597833Y-83975500D01*
X160578148Y-84042539D01*
X160525344Y-84088294D01*
X160473833Y-84099500D01*
X154879499Y-84099500D01*
X154812460Y-84079815D01*
X154766705Y-84027011D01*
X154755499Y-83975500D01*
X154755499Y-83852129D01*
X154755498Y-83852123D01*
X154755497Y-83852116D01*
X154749091Y-83792517D01*
X154718722Y-83711094D01*
X154698797Y-83657671D01*
X154698793Y-83657664D01*
X154612547Y-83542455D01*
X154612544Y-83542452D01*
X154497335Y-83456206D01*
X154497328Y-83456202D01*
X154362482Y-83405908D01*
X154362483Y-83405908D01*
X154302883Y-83399501D01*
X154302881Y-83399500D01*
X154302873Y-83399500D01*
X154302864Y-83399500D01*
X152007129Y-83399500D01*
X152007123Y-83399501D01*
X151947516Y-83405908D01*
X151804359Y-83459303D01*
X151803148Y-83456057D01*
X151751132Y-83467363D01*
X151716434Y-83457175D01*
X151715641Y-83459303D01*
X151572482Y-83405908D01*
X151572483Y-83405908D01*
X151512883Y-83399501D01*
X151512881Y-83399500D01*
X151512873Y-83399500D01*
X151512864Y-83399500D01*
X150317129Y-83399500D01*
X150317123Y-83399501D01*
X150257516Y-83405908D01*
X150122671Y-83456202D01*
X150122664Y-83456206D01*
X150007455Y-83542452D01*
X150007452Y-83542455D01*
X149921206Y-83657664D01*
X149921202Y-83657671D01*
X149870908Y-83792517D01*
X149864501Y-83852116D01*
X149864501Y-83852123D01*
X149864500Y-83852135D01*
X149864500Y-85747870D01*
X149864501Y-85747876D01*
X149870908Y-85807483D01*
X149921202Y-85942328D01*
X149921206Y-85942335D01*
X149990358Y-86034709D01*
X150007454Y-86057546D01*
X150074811Y-86107970D01*
X150116682Y-86163903D01*
X150124500Y-86207236D01*
X150124500Y-89975270D01*
X150115855Y-90004710D01*
X150109332Y-90034697D01*
X150105577Y-90039712D01*
X150104815Y-90042309D01*
X150088181Y-90062951D01*
X150000181Y-90150951D01*
X149938858Y-90184436D01*
X149869166Y-90179452D01*
X149824819Y-90150951D01*
X149731157Y-90057289D01*
X149731156Y-90057288D01*
X149581834Y-89965186D01*
X149415297Y-89910001D01*
X149415295Y-89910000D01*
X149312510Y-89899500D01*
X148687498Y-89899500D01*
X148687480Y-89899501D01*
X148584703Y-89910000D01*
X148584700Y-89910001D01*
X148418168Y-89965185D01*
X148418163Y-89965187D01*
X148268842Y-90057289D01*
X148144787Y-90181344D01*
X148099614Y-90254581D01*
X148047666Y-90301305D01*
X147978703Y-90312526D01*
X147928980Y-90295022D01*
X147804877Y-90218475D01*
X147804872Y-90218473D01*
X147804871Y-90218472D01*
X147638334Y-90163287D01*
X147638332Y-90163286D01*
X147535547Y-90152786D01*
X146485535Y-90152786D01*
X146485517Y-90152787D01*
X146382740Y-90163286D01*
X146382737Y-90163287D01*
X146216205Y-90218471D01*
X146216196Y-90218475D01*
X146088028Y-90297530D01*
X146020636Y-90315970D01*
X145957836Y-90297530D01*
X145824340Y-90215189D01*
X145824335Y-90215187D01*
X145824334Y-90215186D01*
X145657797Y-90160001D01*
X145657795Y-90160000D01*
X145555016Y-90149500D01*
X145555009Y-90149500D01*
X145142229Y-90149500D01*
X145075190Y-90129815D01*
X145054548Y-90113181D01*
X141436818Y-86495451D01*
X141403333Y-86434128D01*
X141400499Y-86407770D01*
X141400499Y-84485462D01*
X141400498Y-84485456D01*
X141400497Y-84485449D01*
X141394091Y-84425850D01*
X141343796Y-84291002D01*
X141343795Y-84291001D01*
X141343793Y-84290997D01*
X141257547Y-84175788D01*
X141257544Y-84175785D01*
X141142335Y-84089539D01*
X141142328Y-84089535D01*
X141007482Y-84039241D01*
X141007483Y-84039241D01*
X140947883Y-84032834D01*
X140947881Y-84032833D01*
X140947873Y-84032833D01*
X140947864Y-84032833D01*
X138852129Y-84032833D01*
X138852123Y-84032834D01*
X138792516Y-84039241D01*
X138657671Y-84089535D01*
X138657664Y-84089539D01*
X138542455Y-84175785D01*
X138542452Y-84175788D01*
X138456206Y-84290997D01*
X138456202Y-84291004D01*
X138405908Y-84425850D01*
X138399501Y-84485449D01*
X138399501Y-84485456D01*
X138399500Y-84485468D01*
X135964962Y-84485468D01*
X136121560Y-84175339D01*
X136123416Y-84171808D01*
X136700629Y-83115752D01*
X136702572Y-83112332D01*
X137313918Y-82075644D01*
X137315976Y-82072281D01*
X137960767Y-81056125D01*
X137962960Y-81052790D01*
X138640557Y-80058168D01*
X138642826Y-80054953D01*
X139352500Y-79082940D01*
X139354865Y-79079809D01*
X140095857Y-78131448D01*
X140098331Y-78128386D01*
X140869832Y-77204707D01*
X140872442Y-77201684D01*
X141673593Y-76303714D01*
X141676330Y-76300745D01*
X141735494Y-76238632D01*
X142506359Y-75429343D01*
X142509154Y-75426502D01*
X143367163Y-74582617D01*
X143370082Y-74579840D01*
X143383493Y-74567484D01*
X144255137Y-73764388D01*
X144258083Y-73761761D01*
X145169300Y-72975560D01*
X145172327Y-72973034D01*
X146108710Y-72216945D01*
X146111804Y-72214530D01*
X146710808Y-71762313D01*
X150499500Y-71762313D01*
X150499500Y-71974887D01*
X150532754Y-72184843D01*
X150573983Y-72311733D01*
X150598444Y-72387014D01*
X150694951Y-72576420D01*
X150819890Y-72748386D01*
X150970213Y-72898709D01*
X151142179Y-73023648D01*
X151142181Y-73023649D01*
X151142184Y-73023651D01*
X151331588Y-73120157D01*
X151533757Y-73185846D01*
X151743713Y-73219100D01*
X151743714Y-73219100D01*
X151956286Y-73219100D01*
X151956287Y-73219100D01*
X152166243Y-73185846D01*
X152368412Y-73120157D01*
X152557816Y-73023651D01*
X152627529Y-72973002D01*
X152729786Y-72898709D01*
X152729788Y-72898706D01*
X152729792Y-72898704D01*
X152880104Y-72748392D01*
X152880106Y-72748388D01*
X152880109Y-72748386D01*
X153005048Y-72576420D01*
X153005047Y-72576420D01*
X153005051Y-72576416D01*
X153101557Y-72387012D01*
X153167246Y-72184843D01*
X153200500Y-71974887D01*
X153200500Y-71762313D01*
X153167246Y-71552357D01*
X153101557Y-71350188D01*
X153005051Y-71160784D01*
X153005049Y-71160781D01*
X153005048Y-71160779D01*
X152880109Y-70988813D01*
X152729786Y-70838490D01*
X152557820Y-70713551D01*
X152368414Y-70617044D01*
X152368413Y-70617043D01*
X152368412Y-70617043D01*
X152166243Y-70551354D01*
X152166241Y-70551353D01*
X152166240Y-70551353D01*
X152004957Y-70525808D01*
X151956287Y-70518100D01*
X151743713Y-70518100D01*
X151695042Y-70525808D01*
X151533760Y-70551353D01*
X151331585Y-70617044D01*
X151142179Y-70713551D01*
X150970213Y-70838490D01*
X150819890Y-70988813D01*
X150694951Y-71160779D01*
X150598444Y-71350185D01*
X150532753Y-71552360D01*
X150515946Y-71658477D01*
X150499500Y-71762313D01*
X146710808Y-71762313D01*
X147072293Y-71489410D01*
X147075494Y-71487074D01*
X148059155Y-70793625D01*
X148062428Y-70791397D01*
X149068177Y-70130388D01*
X149071435Y-70128322D01*
X150098240Y-69500432D01*
X150101634Y-69498432D01*
X151148284Y-68904399D01*
X151151789Y-68902484D01*
X152217242Y-68342896D01*
X152220823Y-68341090D01*
X153303954Y-67816537D01*
X153307525Y-67814879D01*
X154407198Y-67325914D01*
X154410892Y-67324343D01*
X155525886Y-66871505D01*
X155529544Y-66870088D01*
X156658837Y-66453797D01*
X156662520Y-66452508D01*
X157804687Y-66073290D01*
X157808495Y-66072093D01*
X158962469Y-65730301D01*
X158966263Y-65729246D01*
X160130706Y-65425277D01*
X160134546Y-65424340D01*
X161308339Y-65158483D01*
X161312165Y-65157682D01*
X162494038Y-64930230D01*
X162497893Y-64929554D01*
X163686516Y-64740763D01*
X163690397Y-64740211D01*
X164884508Y-64590279D01*
X164888499Y-64589844D01*
X166086817Y-64478928D01*
X166090799Y-64478624D01*
X167292116Y-64406836D01*
X167296060Y-64406665D01*
X168499127Y-64374081D01*
X168503134Y-64374039D01*
X169706562Y-64380697D01*
G37*
G04 #@! TD.AperFunction*
G04 #@! TD*
M02*
