G04 #@! TF.GenerationSoftware,KiCad,Pcbnew,9.0.8-9.0.8~ubuntu24.04.1*
G04 #@! TF.CreationDate,2026-04-07T16:41:21+10:00*
G04 #@! TF.ProjectId,LED_Board,4c45445f-426f-4617-9264-2e6b69636164,rev?*
G04 #@! TF.SameCoordinates,Original*
G04 #@! TF.FileFunction,Paste,Top*
G04 #@! TF.FilePolarity,Positive*
%FSLAX46Y46*%
G04 Gerber Fmt 4.6, Leading zero omitted, Abs format (unit mm)*
G04 Created by KiCad (PCBNEW 9.0.8-9.0.8~ubuntu24.04.1) date 2026-04-07 16:41:21*
%MOMM*%
%LPD*%
G01*
G04 APERTURE LIST*
G04 Aperture macros list*
%AMRoundRect*
0 Rectangle with rounded corners*
0 $1 Rounding radius*
0 $2 $3 $4 $5 $6 $7 $8 $9 X,Y pos of 4 corners*
0 Add a 4 corners polygon primitive as box body*
4,1,4,$2,$3,$4,$5,$6,$7,$8,$9,$2,$3,0*
0 Add four circle primitives for the rounded corners*
1,1,$1+$1,$2,$3*
1,1,$1+$1,$4,$5*
1,1,$1+$1,$6,$7*
1,1,$1+$1,$8,$9*
0 Add four rect primitives between the rounded corners*
20,1,$1+$1,$2,$3,$4,$5,0*
20,1,$1+$1,$4,$5,$6,$7,0*
20,1,$1+$1,$6,$7,$8,$9,0*
20,1,$1+$1,$8,$9,$2,$3,0*%
G04 Aperture macros list end*
%ADD10RoundRect,0.075000X0.390000X0.275000X-0.390000X0.275000X-0.390000X-0.275000X0.390000X-0.275000X0*%
%ADD11RoundRect,0.075000X0.075000X0.275000X-0.075000X0.275000X-0.075000X-0.275000X0.075000X-0.275000X0*%
%ADD12R,1.100000X1.800000*%
%ADD13R,2.200000X1.800000*%
%ADD14RoundRect,0.150000X-0.587500X-0.150000X0.587500X-0.150000X0.587500X0.150000X-0.587500X0.150000X0*%
%ADD15R,0.500000X2.140000*%
%ADD16R,0.970000X0.800000*%
%ADD17RoundRect,0.250000X0.450000X-0.262500X0.450000X0.262500X-0.450000X0.262500X-0.450000X-0.262500X0*%
%ADD18RoundRect,0.250000X0.262500X0.450000X-0.262500X0.450000X-0.262500X-0.450000X0.262500X-0.450000X0*%
%ADD19RoundRect,0.250000X-0.262500X-0.450000X0.262500X-0.450000X0.262500X0.450000X-0.262500X0.450000X0*%
%ADD20RoundRect,0.250000X-0.475000X0.250000X-0.475000X-0.250000X0.475000X-0.250000X0.475000X0.250000X0*%
%ADD21RoundRect,0.075000X-0.275000X0.390000X-0.275000X-0.390000X0.275000X-0.390000X0.275000X0.390000X0*%
%ADD22RoundRect,0.075000X-0.275000X0.075000X-0.275000X-0.075000X0.275000X-0.075000X0.275000X0.075000X0*%
G04 APERTURE END LIST*
D10*
G04 #@! TO.C,D10*
X151885000Y-113600000D03*
D11*
X151000000Y-113600000D03*
G04 #@! TD*
D12*
G04 #@! TO.C,D9*
X183115000Y-84800000D03*
D13*
X185355000Y-84800000D03*
G04 #@! TD*
D12*
G04 #@! TO.C,D8*
X186485000Y-119000000D03*
D13*
X184245000Y-119000000D03*
G04 #@! TD*
D14*
G04 #@! TO.C,Q4*
X149625000Y-108050000D03*
X149625000Y-109950000D03*
X151500000Y-109000000D03*
G04 #@! TD*
D12*
G04 #@! TO.C,D2*
X175751667Y-119000000D03*
D13*
X173511667Y-119000000D03*
G04 #@! TD*
D15*
G04 #@! TO.C,D1*
X171040000Y-102720050D03*
D16*
X169510000Y-102975050D03*
X169510000Y-101925050D03*
X169510000Y-100875050D03*
X169510000Y-99825050D03*
X168290000Y-102975050D03*
X168290000Y-101925050D03*
X168290000Y-100875050D03*
X168290000Y-99825050D03*
D15*
X166760000Y-100080050D03*
X171040000Y-100080050D03*
X166760000Y-102720050D03*
G04 #@! TD*
D12*
G04 #@! TO.C,D4*
X150915000Y-84800000D03*
D13*
X153155000Y-84800000D03*
G04 #@! TD*
D17*
G04 #@! TO.C,R39*
X146193750Y-109950000D03*
X146193750Y-108125000D03*
G04 #@! TD*
D12*
G04 #@! TO.C,D5*
X161648333Y-84800000D03*
D13*
X163888333Y-84800000D03*
G04 #@! TD*
D18*
G04 #@! TO.C,R40*
X150825000Y-91100000D03*
X149000000Y-91100000D03*
G04 #@! TD*
D19*
G04 #@! TO.C,R38*
X142556250Y-108300000D03*
X144381250Y-108300000D03*
G04 #@! TD*
D20*
G04 #@! TO.C,C1*
X145030000Y-91150000D03*
X145030000Y-93050000D03*
G04 #@! TD*
D21*
G04 #@! TO.C,D11*
X147900000Y-108115000D03*
D22*
X147900000Y-109000000D03*
G04 #@! TD*
D12*
G04 #@! TO.C,D3*
X165018333Y-119000000D03*
D13*
X162778333Y-119000000D03*
G04 #@! TD*
D12*
G04 #@! TO.C,D6*
X172381667Y-84800000D03*
D13*
X174621667Y-84800000D03*
G04 #@! TD*
D18*
G04 #@! TO.C,R37*
X150825000Y-93000000D03*
X149000000Y-93000000D03*
G04 #@! TD*
D20*
G04 #@! TO.C,C2*
X147010537Y-91153286D03*
X147010537Y-93053286D03*
G04 #@! TD*
D12*
G04 #@! TO.C,D7*
X154285000Y-119000000D03*
D13*
X152045000Y-119000000D03*
G04 #@! TD*
M02*
